<?xml version="1.0" encoding="UTF-8"?>
<!DOCTYPE svg PUBLIC "-//W3C//DTD SVG 1.1//EN" "http://www.w3.org/Graphics/SVG/1.1/DTD/svg11.dtd">
<svg xmlns="http://www.w3.org/2000/svg" version="1.1" width="225px" height="225px" style="shape-rendering:geometricPrecision; text-rendering:geometricPrecision; image-rendering:optimizeQuality; fill-rule:evenodd; clip-rule:evenodd" xmlns:xlink="http://www.w3.org/1999/xlink">
<g><path style="opacity:0.99" fill="#fdfdfd" d="M -0.5,-0.5 C 74.5,-0.5 149.5,-0.5 224.5,-0.5C 224.5,74.5 224.5,149.5 224.5,224.5C 212.5,224.5 200.5,224.5 188.5,224.5C 190.184,212.401 192.517,200.401 195.5,188.5C 199.536,187.98 202.703,185.98 205,182.5C 212.582,165.164 208.749,150.83 193.5,139.5C 197.672,131.824 201.172,123.824 204,115.5C 205.419,106.875 205.752,98.208 205,89.5C 202.777,82.2774 198.611,76.4441 192.5,72C 189.854,71.5026 187.187,71.3359 184.5,71.5C 185.035,64.6269 184.201,57.9603 182,51.5C 169.886,42.7642 156.386,39.5975 141.5,42C 136.588,43.7084 132.421,46.5417 129,50.5C 120.694,40.0915 109.861,33.9249 96.5,32C 84.7235,30.9766 73.0568,31.6433 61.5,34C 44.459,40.5255 36.459,53.0255 37.5,71.5C 33.5248,73.6418 30.3581,76.6418 28,80.5C 24.1679,87.1619 21.1679,94.1619 19,101.5C 18.3333,111.833 18.3333,122.167 19,132.5C 20.9759,139.278 23.8092,145.612 27.5,151.5C 20.2427,162.457 18.7427,174.124 23,186.5C 26.9286,192.545 32.4286,195.545 39.5,195.5C 40.8333,205.167 42.1667,214.833 43.5,224.5C 28.8333,224.5 14.1667,224.5 -0.5,224.5C -0.5,149.5 -0.5,74.5 -0.5,-0.5 Z"/></g>
<g><path style="opacity:1" fill="#0c0b0b" d="M 188.5,224.5 C 186.167,224.5 183.833,224.5 181.5,224.5C 183.534,210.635 186.534,196.968 190.5,183.5C 192.008,180.582 194.175,179.916 197,181.5C 203.13,173.512 204.13,164.845 200,155.5C 195.021,150.189 189.687,145.189 184,140.5C 183.28,138.888 183.446,137.388 184.5,136C 186.101,135.727 187.601,135.227 189,134.5C 192.395,126.98 195.395,119.313 198,111.5C 198.667,103.833 198.667,96.1667 198,88.5C 195.105,79.4665 188.938,75.6332 179.5,77C 179,76.5 178.5,76 178,75.5C 177.667,68.8333 177.333,62.1667 177,55.5C 166.037,48.8868 154.203,46.7201 141.5,49C 139.246,50.3767 137.08,51.8767 135,53.5C 132.402,59.2241 130.735,65.2241 130,71.5C 128,72.8333 126,72.8333 124,71.5C 127.175,57.6794 122.342,48.1794 109.5,43C 101.264,39.1317 92.5975,37.6317 83.5,38.5C 56.4868,36.3521 43.3201,48.6854 44,75.5C 40.4503,77.0406 37.4503,79.374 35,82.5C 25.6647,96.814 22.3314,112.481 25,129.5C 26.8718,137.316 30.3718,144.15 35.5,150C 32.2541,156.325 29.4208,162.825 27,169.5C 25.6343,176.93 27.801,183.097 33.5,188C 35.8661,188.562 38.1994,188.396 40.5,187.5C 42.601,187.632 44.101,188.632 45,190.5C 47.4689,201.708 48.9689,213.041 49.5,224.5C 47.5,224.5 45.5,224.5 43.5,224.5C 42.1667,214.833 40.8333,205.167 39.5,195.5C 32.4286,195.545 26.9286,192.545 23,186.5C 18.7427,174.124 20.2427,162.457 27.5,151.5C 23.8092,145.612 20.9759,139.278 19,132.5C 18.3333,122.167 18.3333,111.833 19,101.5C 21.1679,94.1619 24.1679,87.1619 28,80.5C 30.3581,76.6418 33.5248,73.6418 37.5,71.5C 36.459,53.0255 44.459,40.5255 61.5,34C 73.0568,31.6433 84.7235,30.9766 96.5,32C 109.861,33.9249 120.694,40.0915 129,50.5C 132.421,46.5417 136.588,43.7084 141.5,42C 156.386,39.5975 169.886,42.7642 182,51.5C 184.201,57.9603 185.035,64.6269 184.5,71.5C 187.187,71.3359 189.854,71.5026 192.5,72C 198.611,76.4441 202.777,82.2774 205,89.5C 205.752,98.208 205.419,106.875 204,115.5C 201.172,123.824 197.672,131.824 193.5,139.5C 208.749,150.83 212.582,165.164 205,182.5C 202.703,185.98 199.536,187.98 195.5,188.5C 192.517,200.401 190.184,212.401 188.5,224.5 Z"/></g>
<g><path style="opacity:1" fill="#f9e7ed" d="M 181.5,224.5 C 137.5,224.5 93.5,224.5 49.5,224.5C 48.9689,213.041 47.4689,201.708 45,190.5C 44.101,188.632 42.601,187.632 40.5,187.5C 38.1994,188.396 35.8661,188.562 33.5,188C 27.801,183.097 25.6343,176.93 27,169.5C 29.4208,162.825 32.2541,156.325 35.5,150C 30.3718,144.15 26.8718,137.316 25,129.5C 22.3314,112.481 25.6647,96.814 35,82.5C 37.4503,79.374 40.4503,77.0406 44,75.5C 43.3201,48.6854 56.4868,36.3521 83.5,38.5C 92.5975,37.6317 101.264,39.1317 109.5,43C 122.342,48.1794 127.175,57.6794 124,71.5C 126,72.8333 128,72.8333 130,71.5C 130.735,65.2241 132.402,59.2241 135,53.5C 137.08,51.8767 139.246,50.3767 141.5,49C 154.203,46.7201 166.037,48.8868 177,55.5C 177.333,62.1667 177.667,68.8333 178,75.5C 178.5,76 179,76.5 179.5,77C 188.938,75.6332 195.105,79.4665 198,88.5C 198.667,96.1667 198.667,103.833 198,111.5C 195.395,119.313 192.395,126.98 189,134.5C 187.601,135.227 186.101,135.727 184.5,136C 183.446,137.388 183.28,138.888 184,140.5C 189.687,145.189 195.021,150.189 200,155.5C 204.13,164.845 203.13,173.512 197,181.5C 194.175,179.916 192.008,180.582 190.5,183.5C 186.534,196.968 183.534,210.635 181.5,224.5 Z"/></g>
<g><path style="opacity:1" fill="#fadce5" d="M 77.5,79.5 C 83.5,79.5 89.5,79.5 95.5,79.5C 94.8197,83.7906 96.4864,86.4573 100.5,87.5C 100.281,91.4844 100.281,95.3177 100.5,99C 99.6295,101.913 98.1295,104.413 96,106.5C 95.51,107.793 95.3433,109.127 95.5,110.5C 87.5341,111.365 79.5341,111.698 71.5,111.5C 70.0188,107.503 67.5188,104.17 64,101.5C 63.8333,100.167 63.6667,98.8333 63.5,97.5C 65.036,90.7058 69.036,85.8725 75.5,83C 76.8228,82.1841 77.4894,81.0174 77.5,79.5 Z"/></g>
<g><path style="opacity:1" fill="#fadce5" d="M 169.5,98.5 C 166.167,98.5 162.833,98.5 159.5,98.5C 161.292,97.6909 163.292,97.1909 165.5,97C 159.691,95.2179 154.025,95.0512 148.5,96.5C 147.15,95.0499 145.484,94.3832 143.5,94.5C 143.334,89.4889 143.501,84.4889 144,79.5C 144.5,79 145,78.5 145.5,78C 152.262,77.0617 158.762,77.895 165,80.5C 167.294,84.8134 168.127,89.4801 167.5,94.5C 166.127,94.3433 164.793,94.51 163.5,95C 165.706,95.9768 167.706,97.1435 169.5,98.5 Z"/></g>
<g><path style="opacity:1" fill="#181415" d="M 113.5,92.5 C 117.713,92.6988 119.046,94.6988 117.5,98.5C 111.787,99.4516 110.454,97.4516 113.5,92.5 Z"/></g>
<g><path style="opacity:1" fill="#100b0c" d="M 126.5,94.5 C 131.159,94.0146 132.492,95.848 130.5,100C 125.728,100.81 124.395,98.9771 126.5,94.5 Z"/></g>
<g><path style="opacity:1" fill="#0d0808" d="M 159.5,98.5 C 162.833,98.5 166.167,98.5 169.5,98.5C 171.109,104.062 173.609,109.395 177,114.5C 181.664,132.674 175.164,144.841 157.5,151C 139.527,154.763 126.694,148.263 119,131.5C 117.048,126.006 115.881,120.339 115.5,114.5C 104.236,115.786 93.2358,118.286 82.5,122C 70.4569,122.865 58.4569,122.532 46.5,121C 43.7902,119.54 43.1235,117.54 44.5,115C 55.4381,116.23 66.4381,116.563 77.5,116C 96.7971,111.118 116.13,106.452 135.5,102C 143.46,100.506 151.46,99.3391 159.5,98.5 Z"/></g>
<g><path style="opacity:1" fill="#ee88a6" d="M 168.5,113.5 C 169.658,118.119 170.158,122.785 170,127.5C 169.317,134.172 165.817,138.339 159.5,140C 160.252,140.671 160.586,141.504 160.5,142.5C 159.292,143.234 157.959,143.567 156.5,143.5C 139.62,146.139 129.12,139.139 125,122.5C 124.107,119.084 124.607,115.917 126.5,113C 130.496,112.189 134.496,111.856 138.5,112C 138.85,115.848 140.85,118.348 144.5,119.5C 146.383,119.124 147.883,118.124 149,116.5C 149.182,113.774 149.682,111.107 150.5,108.5C 154.777,107.394 159.11,107.228 163.5,108C 164.833,110.191 166.5,112.024 168.5,113.5 Z"/></g>
<g><path style="opacity:1" fill="#ce90a1" d="M 168.5,113.5 C 166.5,112.024 164.833,110.191 163.5,108C 159.11,107.228 154.777,107.394 150.5,108.5C 149.682,111.107 149.182,113.774 149,116.5C 147.883,118.124 146.383,119.124 144.5,119.5C 140.85,118.348 138.85,115.848 138.5,112C 134.496,111.856 130.496,112.189 126.5,113C 124.607,115.917 124.107,119.084 125,122.5C 129.12,139.139 139.62,146.139 156.5,143.5C 144.585,148.472 135.085,145.472 128,134.5C 124.139,127.466 122.306,120.132 122.5,112.5C 127.614,111.008 132.781,109.674 138,108.5C 139.884,110.45 141.218,112.784 142,115.5C 144.864,118.326 147.031,117.826 148.5,114C 147.129,111.681 146.462,109.181 146.5,106.5C 152.492,105.301 158.492,105.301 164.5,106.5C 166.11,108.725 167.443,111.059 168.5,113.5 Z"/></g>
<g><path style="opacity:1" fill="#d48fa4" d="M 168.5,113.5 C 174.674,125.649 172.007,135.316 160.5,142.5C 160.586,141.504 160.252,140.671 159.5,140C 165.817,138.339 169.317,134.172 170,127.5C 170.158,122.785 169.658,118.119 168.5,113.5 Z"/></g>
</svg>
